P3
4 4
255
0 0 0 0 0 0 255 127 63 255 127 63 0 0 0 0 0 0 255 127 63 255 127 63 0
0 0 0 0 0 255 127 63 255 127 63 0 0 0 0 0 0 255 127 63 255 127 63
