P3
10 10
255
0 0 0 0 0 0 0 0 0 0 0 0 0 0 0 0 0 0 0 0 0 0 0 0 0 0 0 0 0 0 0 0 0 0 0
0 114 159 207 0 0 0 0 0 0 0 0 0 0 0 0 0 0 0 0 0 0 0 0 0 0 0 0 0 0 0
114 159 207 114 159 207 0 0 0 0 0 0 0 0 0 0 0 0 0 0 0 0 0 0 0 0 0 0 0
0 114 159 207 114 159 207 114 159 207 114 159 207 0 0 0 0 0 0 0 0 0 0
0 0 0 0 0 0 0 0 114 159 207 114 159 207 114 159 207 114 159 207 114
159 207 0 0 0 0 0 0 0 0 0 0 0 0 114 159 207 114 159 207 114 159 207
114 159 207 114 159 207 114 159 207 114 159 207 114 159 207 0 0 0 0 0
0 114 159 207 114 159 207 114 159 207 114 159 207 114 159 207 0 0 0 0
0 0 0 0 0 0 0 0 0 0 0 114 159 207 114 159 207 0 0 0 0 0 0 0 0 0 0 0 0
0 0 0 0 0 0 0 0 0 114 159 207 0 0 0 0 0 0 0 0 0 0 0 0 0 0 0 0 0 0 0 0
0 0 0 0 0 0 0 0 0 0 0 0 0 0 0 0 0 0 0 0 0 0 0 0 0 0 0 0 0 0 0 0 0 0 0
0 0
